<!-- Using this logo as part of my job application. I claim no ownership. -->
<!-- © 2019 Bellroy Pty Ltd -->

<svg viewBox="0 0 26 31" fill="none" xmlns="http://www.w3.org/2000/svg">
<path d="M4.6 5.49999C3.9 5.49999 3.30001 6.09999 3.30001 6.79999C3.30001 7.49999 4.00001 8.19999 4.80001 7.99999C5.10001 9.09999 5.7 10.1 6.6 10.8L7.00001 11L7.40001 10.7C8.10001 10.1 8.8 8.99999 9.1 7.89999H9.40001C10.1 7.89999 10.7 7.29999 10.7 6.59999C10.7 5.89999 10 5.39999 9.30001 5.39999C8.50001 5.39999 8.00001 5.99999 8.00001 6.69999C8.00001 7.59999 7.50001 8.79999 6.90001 9.59999C6.30001 8.89999 5.90001 7.79999 5.80001 6.69999C5.90001 6.09999 5.3 5.49999 4.6 5.49999ZM21.1 17.1C18.6 10.9 15 9.09999 13.5 8.49999C13.6 8.09999 13.6 7.79999 13.6 7.29999C13.6 3.69999 10.6 0.799988 7.00001 0.799988C3.50001 0.799988 0.700002 3.59999 0.200002 7.19999C-0.499998 15.9 5.20001 20.7 8.00001 22.9C9.60001 24.1 10.4 25 9.50001 26.5C8.90001 27.3 8.3 28.5 7.7 28.7C6.1 29 5.6 30 5.6 30H7.00001C8.80001 30 9.3 29.9 11.1 27C12.8 24.1 10.1 22.5 9.00001 21.6C6.20001 19.5 1 15.2 1.7 7.39999V7.29999C2 4.29999 4.2 2.09999 7.1 2.09999C8.12315 2.09149 9.12573 2.38736 9.98032 2.95C10.8349 3.51264 11.5029 4.31665 11.8995 5.25985C12.2961 6.20305 12.4033 7.24286 12.2075 8.24714C12.0117 9.25141 11.5218 10.1748 10.8 10.9C9.90001 11.9 8.6 12.4 7.2 12.4C6.7 12.4 6.30001 12.3 5.90001 12.2C4.50001 11.8 3.90001 12.8 3.90001 12.8L3.80001 12.9L3.90001 13C4.80001 13.6 6.1 13.9 7.2 13.9C9 13.9 10.6 13.3 11.8 12C12.4 11.4 12.9 10.7 13.2 9.99999C14.4 10.5 17.6 12.1 19.9 17.7C20.5 19.1 21 20.5 21.5 21.7C19.7 21.7 13.4 21.5 10.3 16.6C9.50001 15.3 8.2 15.6 8.2 15.6C11.4 23.3 20.5 23.1 22.2 23.2C23 25.2 23.7 26.8 24 27.7C23.3 27.7 21.9 27.4 20.3 26C19.6163 25.3639 18.8141 24.8687 17.939 24.5427C17.0639 24.2167 16.1332 24.0663 15.2 24.1L11.2 30.4C11.2 30.4 13.1 30.4 13.9 29.2L16.1 25.7C17.2 25.8 18.3 26.3 19.4 27.2C21.5 28.9 22.8 29.1 24.1 29.1C25.3 29.2 26 28.8 26 28.8C26 28.8 23.6 23.2 21.1 17.1Z" fill="white"/>
</svg>
