<svg viewBox="0 0 54 54" fill="none" xmlns="http://www.w3.org/2000/svg">
<path fill-rule="evenodd" clip-rule="evenodd" d="M27 54C41.9117 54 54 41.9117 54 27C54 12.0883 41.9117 0 27 0C12.0883 0 0 12.0883 0 27C0 41.9117 12.0883 54 27 54ZM27 40.2353C34.3097 40.2353 40.2353 34.3097 40.2353 27C40.2353 19.6903 34.3097 13.7647 27 13.7647C19.6903 13.7647 13.7647 19.6903 13.7647 27C13.7647 34.3097 19.6903 40.2353 27 40.2353Z" fill="black"/>
<path d="M25 13H29V29H25V13Z" fill="black"/>
<path d="M39.8564 18L41.8564 21.4641L28 29.4641L26 26L39.8564 18Z" fill="black"/>
<path d="M14 18L12 21.4641L25.8564 29.4641L27.8564 26L14 18Z" fill="black"/>
<path d="M37.0893 42.9403L40.1938 40.418L30.1045 28L27 30.5223L37.0893 42.9403Z" fill="black"/>
<path d="M18.2339 43.2896L15 40.9355L24.4167 28L27.6505 30.3542L18.2339 43.2896Z" fill="black"/>
<path d="M31 28C31 30.2091 29.2091 32 27 32C24.7909 32 23 30.2091 23 28C23 25.7909 24.7909 24 27 24C29.2091 24 31 25.7909 31 28Z" fill="black"/>
</svg>
