<svg viewBox="0 0 34 175" fill="none" xmlns="http://www.w3.org/2000/svg">
<path d="M0 0H34V5H0V0Z" fill="white"/>
<path d="M0 10H34V15H0V10Z" fill="white"/>
<path d="M0 20H34V25H0V20Z" fill="white"/>
<path d="M0 30H34V35H0V30Z" fill="white"/>
<path d="M0 40H34V45H0V40Z" fill="white"/>
<path d="M0 50H34V55H0V50Z" fill="white"/>
<path d="M0 60H34V65H0V60Z" fill="white"/>
<path d="M0 70H34V75H0V70Z" fill="white"/>
<path d="M0 80H34V85H0V80Z" fill="white"/>
<path d="M0 90H34V95H0V90Z" fill="white"/>
<path d="M0 100H34V105H0V100Z" fill="white"/>
<path d="M0 110H34V115H0V110Z" fill="white"/>
<path d="M0 120H34V125H0V120Z" fill="white"/>
<path d="M0 130H34V135H0V130Z" fill="white"/>
<path d="M0 140H34V145H0V140Z" fill="white"/>
<path d="M0 150H34V155H0V150Z" fill="white"/>
<path d="M0 160H34V165H0V160Z" fill="white"/>
<path d="M0 170H34V175H0V170Z" fill="white"/>
</svg>
