<svg viewBox="0 0 145 115" fill="none" xmlns="http://www.w3.org/2000/svg">
<path d="M79 87C79 101.912 66.9117 114 52 114C37.0883 114 25 101.912 25 87C25 72.0883 37.0883 60 52 60L132.5 60M119.121 93C119.121 100.18 113.274 106 106.06 106C98.8474 106 93 100.18 93 93C93 85.8203 98.8474 80 106.06 80L145 80M55 28C55 13.0883 42.9117 1 28 1C13.0883 1 1 13.0883 1 28C1 42.9117 13.0883 55 28 55L108.5 55M108.67 28.5C108.67 18.2827 100.461 10 90.3349 10C80.2088 10 72 18.2827 72 28.5C72 38.7173 80.2088 47 90.3349 47L145 47" stroke="black" stroke-width="2"/>
</svg>
